<?xml version="1.0" encoding="UTF-8" standalone="no"?>
<svg
   xmlns:dc="http://purl.org/dc/elements/1.1/"
   xmlns:cc="http://creativecommons.org/ns#"
   xmlns:rdf="http://www.w3.org/1999/02/22-rdf-syntax-ns#"
   xmlns:svg="http://www.w3.org/2000/svg"
   xmlns="http://www.w3.org/2000/svg"
   xmlns:sodipodi="http://sodipodi.sourceforge.net/DTD/sodipodi-0.dtd"
   xmlns:inkscape="http://www.inkscape.org/namespaces/inkscape"
   viewBox="0 0 512 512"
   style="height: 512px; width: 512px;"
   version="1.1"
   id="svg8"
   sodipodi:docname="cancel.svg"
   inkscape:version="0.92.4 (5da689c313, 2019-01-14)">
  <metadata
     id="metadata14">
    <rdf:RDF>
      <cc:Work
         rdf:about="">
        <dc:format>image/svg+xml</dc:format>
        <dc:type
           rdf:resource="http://purl.org/dc/dcmitype/StillImage" />
      </cc:Work>
    </rdf:RDF>
  </metadata>
  <defs
     id="defs12" />
  <sodipodi:namedview
     pagecolor="#ffffff"
     bordercolor="#666666"
     borderopacity="1"
     objecttolerance="10"
     gridtolerance="10"
     guidetolerance="10"
     inkscape:pageopacity="0"
     inkscape:pageshadow="2"
     inkscape:window-width="659"
     inkscape:window-height="480"
     id="namedview10"
     showgrid="false"
     inkscape:zoom="0.4609375"
     inkscape:cx="2.1694915"
     inkscape:cy="256"
     inkscape:window-x="0"
     inkscape:window-y="0"
     inkscape:window-maximized="0"
     inkscape:current-layer="svg8" />
  <path
     d="M 0 0 L 0 512 L 512 512 L 512 0 L 0 0 z M 256 16 C 388.55 16 496 123.45 496 256 C 496 388.55 388.55 496 256 496 C 123.45 496 16 388.55 16 256 C 16 123.45 123.45 16 256 16 z M 256 76 C 156.59 76 76 156.59 76 256 C 76 355.41 156.59 436 256 436 C 355.41 436 436 355.41 436 256 C 436 156.59 355.41 76 256 76 z M 175.375 136 L 175.37305 136.00195 C 178.28305 136.01695 180.78375 136.98525 182.84375 139.03125 L 256 212.15625 L 329.15625 139.03125 C 343.78725 124.40625 387.6925 168.28125 373.0625 182.90625 L 299.90625 256.03125 L 373.0625 329.15625 C 387.6935 343.78225 343.78625 387.6905 329.15625 373.0625 L 256 299.90625 L 182.84375 373.06445 C 168.21275 387.69245 124.3075 343.7832 138.9375 329.1582 L 212.09375 256.03125 L 138.9375 182.90625 C 127.0485 171.02325 154.0155 139.71725 172.3125 136.28125 L 172.3125 136.3125 C 173.3695 136.1115 174.405 135.995 175.375 136 z "
     id="path2" />
  <g
     class=""
     transform="translate(0,0)"
     style="touch-action: none;"
     id="g6" />
</svg>
