<?xml version="1.0" encoding="UTF-8" standalone="no"?>
<svg
   xmlns:dc="http://purl.org/dc/elements/1.1/"
   xmlns:cc="http://creativecommons.org/ns#"
   xmlns:rdf="http://www.w3.org/1999/02/22-rdf-syntax-ns#"
   xmlns:svg="http://www.w3.org/2000/svg"
   xmlns="http://www.w3.org/2000/svg"
   xmlns:sodipodi="http://sodipodi.sourceforge.net/DTD/sodipodi-0.dtd"
   xmlns:inkscape="http://www.inkscape.org/namespaces/inkscape"
   viewBox="0 0 512 512"
   style="height: 512px; width: 512px;"
   version="1.1"
   id="svg8"
   sodipodi:docname="confirmed.svg"
   inkscape:version="0.92.4 (5da689c313, 2019-01-14)">
  <metadata
     id="metadata14">
    <rdf:RDF>
      <cc:Work
         rdf:about="">
        <dc:format>image/svg+xml</dc:format>
        <dc:type
           rdf:resource="http://purl.org/dc/dcmitype/StillImage" />
      </cc:Work>
    </rdf:RDF>
  </metadata>
  <defs
     id="defs12" />
  <sodipodi:namedview
     pagecolor="#ffffff"
     bordercolor="#666666"
     borderopacity="1"
     objecttolerance="10"
     gridtolerance="10"
     guidetolerance="10"
     inkscape:pageopacity="0"
     inkscape:pageshadow="2"
     inkscape:window-width="1610"
     inkscape:window-height="1027"
     id="namedview10"
     showgrid="false"
     inkscape:zoom="0.4609375"
     inkscape:cx="2.1694915"
     inkscape:cy="256"
     inkscape:window-x="-8"
     inkscape:window-y="-8"
     inkscape:window-maximized="1"
     inkscape:current-layer="svg8" />
  <path
     d="M 0 0 L 0 512 L 512 512 L 512 0 L 0 0 z M 256 16 C 388.6 16 496 123.4 496 256 C 496 388.6 388.6 496 256 496 C 123.5 496 16 388.6 16 256 C 16 123.5 123.5 16 256 16 z M 256 76 C 156.6 76 76 156.6 76 256 C 76 355.4 156.6 436 256 436 C 355.4 436 436 355.4 436 256 C 436 156.6 355.4 76 256 76 z M 347.30078 140.19922 C 366.50078 139.99922 389.5 160.90078 381.5 171.30078 C 307.8 268.20078 254.09922 403.3 232.69922 405 C 220.09922 406 142.6 306.09922 99 261.19922 C 89.3 251.29922 116.39961 213.19961 130.59961 224.09961 C 158.89961 245.79961 216.1 307.09922 224.5 318.19922 C 261.5 244.89922 278.5 218.50039 330.5 148.40039 C 334.8 142.60039 340.80078 140.19922 347.30078 140.19922 z "
     id="path2" />
  <g
     class=""
     transform="translate(0,0)"
     style="touch-action: none;"
     id="g6" />
</svg>
