<?xml version="1.0" encoding="UTF-8" standalone="no"?>
<svg
   xmlns:dc="http://purl.org/dc/elements/1.1/"
   xmlns:cc="http://creativecommons.org/ns#"
   xmlns:rdf="http://www.w3.org/1999/02/22-rdf-syntax-ns#"
   xmlns:svg="http://www.w3.org/2000/svg"
   xmlns="http://www.w3.org/2000/svg"
   xmlns:sodipodi="http://sodipodi.sourceforge.net/DTD/sodipodi-0.dtd"
   xmlns:inkscape="http://www.inkscape.org/namespaces/inkscape"
   viewBox="0 0 512 512"
   style="height: 512px; width: 512px;"
   version="1.1"
   id="svg8"
   sodipodi:docname="pin-on.svg"
   inkscape:version="0.92.4 (5da689c313, 2019-01-14)">
  <metadata
     id="metadata14">
    <rdf:RDF>
      <cc:Work
         rdf:about="">
        <dc:format>image/svg+xml</dc:format>
        <dc:type
           rdf:resource="http://purl.org/dc/dcmitype/StillImage" />
      </cc:Work>
    </rdf:RDF>
  </metadata>
  <defs
     id="defs12" />
  <sodipodi:namedview
     pagecolor="#ffffff"
     bordercolor="#666666"
     borderopacity="1"
     objecttolerance="10"
     gridtolerance="10"
     guidetolerance="10"
     inkscape:pageopacity="0"
     inkscape:pageshadow="2"
     inkscape:window-width="1610"
     inkscape:window-height="1027"
     id="namedview10"
     showgrid="false"
     inkscape:zoom="0.921875"
     inkscape:cx="149.80848"
     inkscape:cy="108.23008"
     inkscape:window-x="-8"
     inkscape:window-y="-8"
     inkscape:window-maximized="1"
     inkscape:current-layer="svg8" />
  <path
     d="M 0 0 L 0 512 L 512 512 L 512 0 L 0 0 z M 370.67969 25.914062 L 342.00977 83.253906 L 313.33789 83.253906 L 313.33984 246.49414 C 330.58476 252.42818 347.79471 260.51252 363.07812 270.06836 C 391.95424 288.1215 413.05402 311.21122 417.93164 332.27734 L 94.068359 332.27734 C 96.852239 320.25441 104.91193 307.57493 116.69727 295.54492 C 125.56156 286.49678 136.52683 277.81967 148.92383 270.06836 C 164.20653 260.51323 181.41578 252.42676 198.66211 246.49414 L 198.66406 83.255859 L 169.99414 83.255859 L 141.32617 25.917969 L 141.32617 25.916016 L 370.67969 25.914062 z M 228.45898 350.27734 L 283.54688 350.27734 L 266.57031 486.08594 L 245.43359 486.08594 L 228.45898 350.27734 z "
     id="path2" />
  <g
     class=""
     transform="translate(0.001977,-15.065428)"
     id="g6" />
</svg>
