<?xml version="1.0" encoding="UTF-8" standalone="no"?>
<svg
   xmlns:dc="http://purl.org/dc/elements/1.1/"
   xmlns:cc="http://creativecommons.org/ns#"
   xmlns:rdf="http://www.w3.org/1999/02/22-rdf-syntax-ns#"
   xmlns:svg="http://www.w3.org/2000/svg"
   xmlns="http://www.w3.org/2000/svg"
   xmlns:sodipodi="http://sodipodi.sourceforge.net/DTD/sodipodi-0.dtd"
   xmlns:inkscape="http://www.inkscape.org/namespaces/inkscape"
   viewBox="0 0 512 512"
   style="height: 512px; width: 512px;"
   version="1.1"
   id="svg8"
   sodipodi:docname="previous-button.svg"
   inkscape:version="0.92.4 (5da689c313, 2019-01-14)">
  <metadata
     id="metadata14">
    <rdf:RDF>
      <cc:Work
         rdf:about="">
        <dc:format>image/svg+xml</dc:format>
        <dc:type
           rdf:resource="http://purl.org/dc/dcmitype/StillImage" />
      </cc:Work>
    </rdf:RDF>
  </metadata>
  <defs
     id="defs12" />
  <sodipodi:namedview
     pagecolor="#ffffff"
     bordercolor="#666666"
     borderopacity="1"
     objecttolerance="10"
     gridtolerance="10"
     guidetolerance="10"
     inkscape:pageopacity="0"
     inkscape:pageshadow="2"
     inkscape:window-width="1610"
     inkscape:window-height="1027"
     id="namedview10"
     showgrid="false"
     inkscape:zoom="0.4609375"
     inkscape:cx="2.1694915"
     inkscape:cy="256"
     inkscape:window-x="-8"
     inkscape:window-y="-8"
     inkscape:window-maximized="1"
     inkscape:current-layer="svg8" />
  <path
     d="M 0 0 L 0 512 L 512 512 L 512 0 L 0 0 z M 78.490234 106 L 130.5 106 C 141.5 106.1 150.4 112.39922 150.5 120.19922 L 150.5 219.09961 L 417.5 108 C 420.7 106.7 424.09961 106 427.59961 106 C 443.19961 106.1 455.30078 119.80078 453.30078 135.30078 C 437.30078 259.30078 437.30078 252.69922 453.30078 376.69922 C 455.80078 396.49922 435.9 411.7 417.5 404 L 150.5 292.90039 L 150.5 391.69922 C 150.5 399.59922 141.6 405.9 130.5 406 L 78.490234 406 C 67.390234 405.9 58.490234 399.59922 58.490234 391.69922 L 58.490234 120.19922 C 58.590234 112.39922 67.490234 106.1 78.490234 106 z "
     id="path2" />
  <g
     class=""
     transform="translate(0,0)"
     style="touch-action: none;"
     id="g6" />
</svg>
